<svg width="207" height="64" viewBox="0 0 207 64" fill="none" xmlns="http://www.w3.org/2000/svg">
<path d="M68.496 17.696V40.352H77.488C79.728 40.352 81.616 40.0107 83.152 39.328C84.688 38.624 85.9253 37.7173 86.864 36.608C87.8027 35.4987 88.4747 34.272 88.88 32.928C89.3067 31.5627 89.52 30.208 89.52 28.864C89.52 27.6267 89.328 26.3467 88.944 25.024C88.56 23.7013 87.888 22.496 86.928 21.408C85.968 20.32 84.688 19.4347 83.088 18.752C81.488 18.048 79.472 17.696 77.04 17.696H68.496ZM72.848 21.408H77.136C78.3093 21.408 79.376 21.5893 80.336 21.952C81.3173 22.3147 82.16 22.8267 82.864 23.488C83.568 24.128 84.112 24.9067 84.496 25.824C84.88 26.7413 85.072 27.7547 85.072 28.864C85.072 30.144 84.8587 31.2747 84.432 32.256C84.0267 33.216 83.472 34.0267 82.768 34.688C82.064 35.3493 81.2427 35.8507 80.304 36.192C79.3867 36.5333 78.416 36.704 77.392 36.704H72.848V21.408ZM106.734 33.472C106.734 31.8507 106.521 30.464 106.094 29.312C105.668 28.16 105.113 27.2213 104.43 26.496C103.748 25.7493 102.98 25.216 102.126 24.896C101.294 24.5547 100.462 24.384 99.6303 24.384C98.4783 24.384 97.4223 24.5867 96.4623 24.992C95.5023 25.376 94.6809 25.92 93.9983 26.624C93.3369 27.328 92.8143 28.1813 92.4303 29.184C92.0676 30.1653 91.8863 31.2427 91.8863 32.416C91.8863 33.632 92.0783 34.752 92.4623 35.776C92.8676 36.7787 93.4223 37.6533 94.1263 38.4C94.8516 39.1253 95.7156 39.6907 96.7183 40.096C97.7423 40.5227 98.8729 40.736 100.11 40.736C101.326 40.736 102.468 40.5013 103.534 40.032C104.622 39.584 105.604 39.008 106.478 38.304L104.654 35.104C103.95 35.7227 103.268 36.192 102.606 36.512C101.945 36.832 101.22 36.992 100.43 36.992C99.8329 36.992 99.2783 36.9067 98.7663 36.736C98.2543 36.5653 97.8063 36.32 97.4223 36C97.0596 35.68 96.7716 35.3067 96.5583 34.88C96.3663 34.4533 96.2809 33.984 96.3023 33.472H106.734ZM96.5583 30.176C96.7716 29.536 97.1236 29.0133 97.6143 28.608C98.1049 28.1813 98.7023 27.968 99.4063 27.968C100.11 27.968 100.676 28.192 101.102 28.64C101.55 29.088 101.849 29.6 101.998 30.176H96.5583ZM108.799 23.616V47.392H112.959V40.48C113.386 40.5867 113.813 40.6613 114.239 40.704C114.687 40.768 115.135 40.8 115.583 40.8C116.714 40.8 117.77 40.5867 118.751 40.16C119.733 39.7333 120.586 39.1573 121.311 38.432C122.037 37.6853 122.602 36.8107 123.007 35.808C123.434 34.8053 123.647 33.728 123.647 32.576C123.647 31.4027 123.445 30.3253 123.039 29.344C122.634 28.3413 122.079 27.4773 121.375 26.752C120.671 26.0267 119.829 25.4613 118.847 25.056C117.866 24.6507 116.799 24.448 115.647 24.448C114.965 24.448 114.261 24.5013 113.535 24.608C112.831 24.7147 112.202 24.864 111.647 25.056L108.799 23.616ZM112.959 28.576C113.45 28.4267 113.834 28.3307 114.111 28.288C114.41 28.2453 114.741 28.224 115.103 28.224C115.722 28.224 116.287 28.3413 116.799 28.576C117.311 28.7893 117.749 29.0987 118.111 29.504C118.495 29.888 118.794 30.3573 119.007 30.912C119.221 31.4667 119.327 32.064 119.327 32.704C119.327 33.984 118.933 35.0187 118.143 35.808C117.375 36.5973 116.351 36.992 115.071 36.992C114.687 36.992 114.335 36.96 114.015 36.896C113.717 36.832 113.365 36.7147 112.959 36.544V28.576ZM147.096 19.456C145.325 18.6453 143.725 18.0907 142.296 17.792C140.866 17.472 139.501 17.312 138.2 17.312C136.621 17.312 135.106 17.6 133.656 18.176C132.205 18.7307 130.914 19.52 129.784 20.544C128.674 21.568 127.778 22.7947 127.096 24.224C126.434 25.6533 126.104 27.2427 126.104 28.992C126.104 30.656 126.413 32.192 127.032 33.6C127.65 35.008 128.504 36.2347 129.592 37.28C130.68 38.3253 131.97 39.1467 133.464 39.744C134.957 40.32 136.589 40.608 138.36 40.608C139.64 40.608 141.005 40.4587 142.456 40.16C143.928 39.8613 145.517 39.264 147.224 38.368L145.848 34.656C144.994 35.0827 144.216 35.4347 143.512 35.712C142.808 35.968 142.146 36.1813 141.528 36.352C140.93 36.5013 140.365 36.608 139.832 36.672C139.32 36.736 138.818 36.768 138.328 36.768C137.197 36.768 136.152 36.576 135.192 36.192C134.253 35.808 133.442 35.2747 132.76 34.592C132.077 33.9093 131.544 33.088 131.16 32.128C130.776 31.168 130.584 30.1227 130.584 28.992C130.584 27.8613 130.776 26.816 131.16 25.856C131.544 24.896 132.066 24.064 132.728 23.36C133.41 22.656 134.21 22.112 135.128 21.728C136.045 21.3227 137.037 21.12 138.104 21.12C139.341 21.12 140.536 21.3013 141.688 21.664C142.84 22.0267 144.045 22.5173 145.304 23.136L147.096 19.456ZM154.168 16.96L149.976 18.272V36.032C149.976 36.8 150.136 37.472 150.456 38.048C150.798 38.624 151.224 39.1147 151.736 39.52C152.248 39.904 152.803 40.192 153.4 40.384C153.998 40.576 154.563 40.672 155.096 40.672C155.502 40.672 155.939 40.6187 156.408 40.512C156.878 40.4267 157.24 40.2773 157.496 40.064L157.848 35.968C157.464 36.2453 157.059 36.4907 156.632 36.704C156.206 36.9173 155.811 37.024 155.448 37.024C155.15 37.024 154.862 36.9387 154.584 36.768C154.307 36.576 154.168 36.1387 154.168 35.456V16.96ZM173.314 33.472C173.314 31.8507 173.101 30.464 172.674 29.312C172.248 28.16 171.693 27.2213 171.01 26.496C170.328 25.7493 169.56 25.216 168.706 24.896C167.874 24.5547 167.042 24.384 166.21 24.384C165.058 24.384 164.002 24.5867 163.042 24.992C162.082 25.376 161.261 25.92 160.578 26.624C159.917 27.328 159.394 28.1813 159.01 29.184C158.648 30.1653 158.466 31.2427 158.466 32.416C158.466 33.632 158.658 34.752 159.042 35.776C159.448 36.7787 160.002 37.6533 160.706 38.4C161.432 39.1253 162.296 39.6907 163.298 40.096C164.322 40.5227 165.453 40.736 166.69 40.736C167.906 40.736 169.048 40.5013 170.114 40.032C171.202 39.584 172.184 39.008 173.058 38.304L171.234 35.104C170.53 35.7227 169.848 36.192 169.186 36.512C168.525 36.832 167.8 36.992 167.01 36.992C166.413 36.992 165.858 36.9067 165.346 36.736C164.834 36.5653 164.386 36.32 164.002 36C163.64 35.68 163.352 35.3067 163.138 34.88C162.946 34.4533 162.861 33.984 162.882 33.472H173.314ZM163.138 30.176C163.352 29.536 163.704 29.0133 164.194 28.608C164.685 28.1813 165.282 27.968 165.986 27.968C166.69 27.968 167.256 28.192 167.682 28.64C168.13 29.088 168.429 29.6 168.578 30.176H163.138ZM187.251 41.184V28.928C187.251 27.9893 187.07 27.2213 186.707 26.624C186.366 26.0053 185.929 25.5253 185.395 25.184C184.862 24.8213 184.286 24.576 183.667 24.448C183.07 24.2987 182.505 24.224 181.971 24.224C180.947 24.224 179.849 24.3413 178.675 24.576C177.523 24.7893 176.35 25.2587 175.155 25.984L176.851 29.344C177.598 28.7893 178.377 28.3947 179.187 28.16C180.019 27.904 180.787 27.776 181.491 27.776C181.982 27.776 182.366 27.904 182.643 28.16C182.942 28.416 183.091 28.736 183.091 29.12V29.792C182.174 29.792 181.225 29.856 180.243 29.984C179.283 30.112 178.409 30.3893 177.619 30.816C176.83 31.2213 176.179 31.7973 175.667 32.544C175.155 33.2907 174.899 34.272 174.899 35.488C174.899 36.1067 175.027 36.7147 175.283 37.312C175.561 37.9093 175.923 38.4533 176.371 38.944C176.841 39.4347 177.374 39.8293 177.971 40.128C178.59 40.4267 179.251 40.576 179.955 40.576C180.297 40.576 180.67 40.5653 181.075 40.544C181.481 40.5227 181.875 40.4907 182.259 40.448C182.665 40.4053 183.038 40.352 183.379 40.288C183.721 40.2453 183.987 40.2027 184.179 40.16L187.251 41.184ZM183.091 36.704C182.985 36.7467 182.825 36.7893 182.611 36.832C182.398 36.8747 182.163 36.9173 181.907 36.96C181.673 36.9813 181.417 37.0027 181.139 37.024C180.883 37.0453 180.649 37.056 180.435 37.056C180.073 37.056 179.763 36.9067 179.507 36.608C179.273 36.288 179.155 35.9147 179.155 35.488C179.155 35.0187 179.262 34.6347 179.475 34.336C179.71 34.0373 180.009 33.8133 180.371 33.664C180.755 33.4933 181.182 33.3867 181.651 33.344C182.121 33.28 182.601 33.248 183.091 33.248V36.704ZM193.47 25.216L190.622 23.68V40.416H194.782V28.608C195.507 28.2453 196.52 28.064 197.822 28.064C198.59 28.064 199.208 28.3627 199.678 28.96C200.147 29.5573 200.382 30.432 200.382 31.584V40.416H204.542V31.04C204.542 28.7787 203.944 27.104 202.75 26.016C201.576 24.9067 200.008 24.352 198.046 24.352C197.171 24.352 196.35 24.4267 195.582 24.576C194.814 24.7253 194.11 24.9173 193.47 25.152V25.216Z" fill="#282828"/>
<path d="M0 0V64H25.6621C32.0548 64 37.4429 63.0358 41.8265 61.1073C46.21 59.1186 49.7413 56.5574 52.4201 53.4237C55.0989 50.29 57.0167 46.8249 58.1735 43.0282C59.3912 39.1714 60 35.3446 60 31.548C60 28.0527 59.4521 24.4369 58.3562 20.7006C57.2603 16.9642 55.3425 13.5593 52.6027 10.4859C49.863 7.41243 46.21 4.91149 41.6438 2.98305C37.0776 0.99435 31.3242 0 24.3836 0H0Z" fill="url(#paint0_linear)"/>
<defs>
<linearGradient id="paint0_linear" x1="23.3333" y1="32" x2="48.1741" y2="56.582" gradientUnits="userSpaceOnUse">
<stop stop-color="#64C19A"/>
<stop offset="1" stop-color="#21704F"/>
</linearGradient>
</defs>
</svg>
